<?xml version="1.0" encoding="UTF-8"?>
<svg xmlns="http://www.w3.org/2000/svg" version="1.1" xmlns:inkscape="http://www.inkscape.org/namespaces/inkscape" xmlns:sodipodi="http://sodipodi.sourceforge.net/DTD/sodipodi-0.dtd" xmlns:svg="http://www.w3.org/2000/svg" viewBox="0 0 1939.6 1080">
  <!-- Generator: Adobe Illustrator 29.0.0, SVG Export Plug-In . SVG Version: 2.1.0 Build 186)  -->
  <defs>
    <style>
      .st0 {
        fill: #fff;
      }
    </style>
  </defs>
  <g id="Capa_1" inkscape:version="1.1 (c68e22c387, 2021-05-23)" sodipodi:docname="Logo UAM Azcapotzalco.svg">
    <sodipodi:namedview id="namedview53" bordercolor="#666666" borderopacity="1.0" fit-margin-bottom="0" fit-margin-left="0" fit-margin-right="0" fit-margin-top="0" inkscape:current-layer="Capa_1" inkscape:cx="847.96134" inkscape:cy="904.62701" inkscape:pagecheckerboard="0" inkscape:pageopacity="0.0" inkscape:pageshadow="2" inkscape:window-height="1017" inkscape:window-maximized="1" inkscape:window-width="1920" inkscape:window-x="1912" inkscape:window-y="-8" inkscape:zoom="0.24706315" pagecolor="#ffffff" showgrid="false"/>
    <g>
      <path d="M525,901.7l124.3-303.1L387.2,110.5c45.2,1.7,91-2.3,136.2-.2,35.3,1.6,91.5,6.1,122.7,21.8,62,31.3,92.8,135.3,132.7,189.6l112.5-206.2,209.5-1.1,173.6,328V113.8h307.5c39,0,121.6,37.9,156,59,306,187.9,218.4,701.2-156,728.8-147.7,10.9-326.6,1.1-477.3-.1-73.9-.6-104.5-4.1-165.9-48.8-14.1-10.2-50.6-38.3-60.8-49.9-3.3-3.7-6.2-8.3-6.3-13.4l117.3-266.6c9.9,8.9,10.1,26.4,16.2,39.2,15.6,32.9,53,59.3,88,68.1l-100.8-197.8-216.8,469.3h-250.4ZM635.9,821.2h79l277.3-549.8,248.6,479.4c-68.9,1.2-143,.4-206.3-30.6-7.5-3.7-46.7-31.6-49.1-29.8l-33.5,73.4c46.6,18.9,98.4,53.1,149.2,57.4,156.6,13.4,332.1-10.2,490.8-.1,291.3-56.9,339.3-440.3,95.5-594.8-21.7-13.7-70.6-38.8-95.5-38.8h-250.4v556.5l-282.3-554.9c-5.8-2.8-101.2-3.4-112.8-1.8s-8.8.7-11.8,5l-156.1,313.7c-35.7-61.9-63.7-128.2-97.4-191.2-38.3-71.5-69.7-137.7-166.4-127.3l221.7,407.6c1.5,11.7-5,23-9.4,33.8-26,64.2-67.2,126.5-91.3,192.2Z"/>
      <path d="M491.4,378.6c-71.3-34.8-158.5-45.7-211.1,25.8-41.9,56.9-40.9,135.4-4.5,194.4,74.4,120.7,233.3,43.3,311.4-32.4,7.8,12.7,23.4,21.7,22,38.4l-124.3,292c-7.7,7.8-45.9,5.5-59,4.8-99.5-5.1-215.9-42.1-290.8-108.9C-90.1,591.9,19.3,123.2,344.7,111l146.7,267.6ZM340.1,267.9c2.7-3.7-22-65.9-28.2-70.5-10.4-7.7-41.9,8.2-53.5,14.2-112.2,57.8-171.7,201.3-163.6,323.2,9.8,148.3,135.2,261.5,278.3,282.2,14.2,2.1,56,9.5,64.8-1.4,4-5,32.8-68.6,30-71.4-157.9,23.2-288.4-58.6-302-223.4-9.1-110.1,69.8-220.2,174.2-252.9Z"/>
      <path class="st0" d="M635.9,821.2c24.1-65.7,65.3-128,91.3-192.2,4.4-10.8,10.9-22.1,9.4-33.8l-221.7-407.6c96.7-10.4,128.1,55.8,166.4,127.3,33.7,63,61.7,129.3,97.4,191.2l156.1-313.7c3-4.3,7.1-4.4,11.8-5,11.6-1.6,107-1,112.8,1.8l282.3,554.9V187.6h250.4c24.9,0,73.8,25.1,95.5,38.8,243.8,154.5,195.8,537.9-95.5,594.8-158.6-10.1-334.1,13.5-490.8.1-50.8-4.3-102.7-38.6-149.2-57.4l33.5-73.4c2.4-1.8,41.6,26.1,49.1,29.8,63.3,30.9,137.3,31.8,206.3,30.6l-248.6-479.4-277.3,549.8h-79ZM1412.2,750.8h176.4c39.2,0,92-42.9,115.9-72.2,85.3-104.5,71.1-297.4-39.1-379.9-16.1-12.1-57.1-30.7-76.7-30.7h-176.4v482.8Z"/>
      <path class="st0" d="M340.1,267.9c-104.4,32.7-183.3,142.8-174.2,252.9,13.6,164.8,144.1,246.6,302,223.4,2.7,2.8-26,66.4-30,71.4-8.8,10.9-50.6,3.5-64.8,1.4-143.1-20.7-268.5-133.9-278.3-282.2-8-121.8,51.4-265.4,163.6-323.2,11.6-6,43.1-21.9,53.5-14.2s30.9,66.8,28.2,70.5Z"/>
      <path d="M1412.2,750.8v-482.8h176.4c19.6,0,60.6,18.7,76.7,30.7,110.2,82.5,124.4,275.3,39.1,379.9-23.8,29.2-76.7,72.2-115.9,72.2h-176.4ZM1486.2,667h109.2c11.9,0,37.1-19.1,45.4-28.4,46.8-52.5,51.3-151.5,26.9-214.7-9.9-25.6-45.3-78.7-75.7-78.7h-105.9v321.8Z"/>
    </g>
  </g>
</svg>