<?xml version="1.0" encoding="UTF-8"?>
<svg id="Capa_1" xmlns="http://www.w3.org/2000/svg" version="1.1" viewBox="0 0 720 720">
  <!-- Generator: Adobe Illustrator 29.0.0, SVG Export Plug-In . SVG Version: 2.1.0 Build 186)  -->
  <defs>
    <style>
      .st0 {
        fill: #fff;
      }
    </style>
  </defs>
  <path class="st0" d="M463.43,267.47c-45.29-16.66-103.13-42.78-152.27-33.69-5.1.94-14.29,1.98-15.35,7.83-.87,4.8-1.18,17.2,2.86,20.32l164.77,77.76v238.06h-76.68v-154.25c0-6.24-5.7-20.77-9.24-26.42-11.02-17.6-25.18-18.09-41.9-25.86-38.56-17.9-77.25-35.53-115.66-53.75l-.88-150.45c68.51-30.29,156.43-34.79,225.09-2.43,6.68,3.15,14.19,5.51,19.28,11.03v91.84h-.02Z"/>
  <path class="st0" d="M634.62,504.64h44.58v73.11h-192.59v-82.03l65.89,3.46c3.35-8.82.15-16,.02-23.9-.72-43.45.42-87.25,1.68-130.06l-2.48-31.42-65.11-36.53v-98.97l148.01,81.14v245.2h0Z"/>
  <polygon class="st0" points="195.94 174.74 195.94 271.93 124.61 312.05 124.61 499.29 195.94 493.94 195.94 577.75 40.8 577.75 40.8 257.66 195.94 174.74"/>
  <path class="st0" d="M219.12,577.75l-.87-224.71,86.47,39.27c-1.3,6.57-5.72,11.76-7.67,18.16-3.87,12.75-4.38,36.27-4.9,50.38-1.43,39.08,1.75,77.98,1.87,116.89h-74.9Z"/>
</svg>