<?xml version="1.0" encoding="UTF-8"?>
<svg xmlns="http://www.w3.org/2000/svg" version="1.1" xmlns:inkscape="http://www.inkscape.org/namespaces/inkscape" xmlns:sodipodi="http://sodipodi.sourceforge.net/DTD/sodipodi-0.dtd" xmlns:svg="http://www.w3.org/2000/svg" viewBox="0 0 1939.6 1080">
  <!-- Generator: Adobe Illustrator 29.0.0, SVG Export Plug-In . SVG Version: 2.1.0 Build 186)  -->
  <defs>
    <style>
      .st0 {
        fill-rule: evenodd;
      }

      .st0, .st1 {
        fill: #d21f2a;
      }

      .st2 {
        fill: #fff;
      }
    </style>
  </defs>
  <g id="Capa_1" inkscape:version="1.1 (c68e22c387, 2021-05-23)" sodipodi:docname="Logo UAM Azcapotzalco.svg">
    <sodipodi:namedview id="namedview53" bordercolor="#666666" borderopacity="1.0" fit-margin-bottom="0" fit-margin-left="0" fit-margin-right="0" fit-margin-top="0" inkscape:current-layer="Capa_1" inkscape:cx="847.96134" inkscape:cy="904.62701" inkscape:pagecheckerboard="0" inkscape:pageopacity="0.0" inkscape:pageshadow="2" inkscape:window-height="1017" inkscape:window-maximized="1" inkscape:window-width="1920" inkscape:window-x="1912" inkscape:window-y="-8" inkscape:zoom="0.24706315" pagecolor="#ffffff" showgrid="false"/>
    <path id="path6" class="st1" d="M92.1,832.7c-2.3,0-4.8.1-7.7.2-3.8.1-5.4,1.5-6.9,5-12.2,29-24.6,57.8-36.9,86.7-13.1,30.7-26.2,61.4-39.5,92-2.4,5.5-1,6.9,4.6,6.5,5.1-.4,10.4-.5,15.5,0,5.2.5,7.4-2.1,9.1-6.4,4.6-11.9,9.7-23.6,14.1-35.6,1.6-4.4,3.7-6.1,8.5-6,26.9.2,53.7.2,80.6,0,4.4,0,6.7,1.6,8.2,5.6,3.7,9.9,7.7,19.6,11.7,29.4q5.3,13,19.2,13c2,0,3.9,0,5.9,0,10,0,10.1,0,6.2-9.2-22.6-53.4-45.2-106.8-67.7-160.1-8-19-9-21.3-24.8-21.1h0ZM93.1,859.5c10.2,25.3,19.6,48.7,29,72.1,2.2,5.5,4.2,11,6.5,16.4,1.4,3.2.7,4.4-2.9,4.4-21.9,0-43.8,0-65.6,0-6.3,0-2.8-3.8-2-5.9,6.2-15.7,12.6-31.4,19-47.1,5.1-12.7,10.2-25.4,16.1-40h0Z"/>
    <path id="path8" class="st1" d="M789,881.2c-18.2,0-33.4,6.7-45.9,21.2-2.1-6.5,2-14.1-2.2-17.1-3.8-2.7-10.9-.6-16.5-1.2s-6.9,1.4-6.9,6.9c.2,56.6.1,113.2.1,169.8,0,19.5,0,19.3,19.7,19.2,5.2,0,6-2,6-6.5-.2-17,0-34,0-50.9v-18.9c11.7,17,27.2,21.9,44.5,22.4,20,.5,36.8-6.2,47.7-23.7,16.2-25.8,18.1-53.6,8.7-82.1-8.5-25.9-28.1-39.1-55.2-39.1h0ZM783.5,902c10.7-.1,21.3,4.4,28.2,13.6,6.8,9,10.5,21.8,10.6,38.2-.5,10.6-2.4,22.2-8.6,32.7-13.7,23.3-42.4,25.8-58.8,4.4-18.3-23.9-14.1-63,5.2-80,6.7-5.8,15-8.8,23.4-8.9Z"/>
    <path id="path10" class="st1" d="M595.5,880.9c-14.6-.1-28.8,3.5-42.5,10.7-2.1,1.1-3.9,2.3-3.7,4.9.3,6.1-.4,12.3,1.9,18.7,13.2-9.7,27.8-13.9,43.8-13.1,18.4.8,28.9,11.4,29.7,29.8.2,4-.7,5.8-5.2,5.6-9.3-.3-18.7-.3-28.1,0-13.9.5-27.3,3.7-39.2,11.3-23.8,15.2-26.1,50.4-4.3,67.4,19.7,15.4,57,12.7,74.2-5.3,1.4-1.5,2.3-3.8,5.4-4,0,4,0,7.9,0,11.8,0,2,0,4.2,2.8,4.2,6.6,0,14.1,1.6,19.5-1,3.9-1.9,0-9.4.5-14.5,0-.7,0-1.5,0-2.2,0-23.9,0-47.7-.2-71.6-.3-26.3-11.2-43.7-31.4-49.4-7.8-2.2-15.6-3.3-23.2-3.4h0ZM605.6,956.6c2.8,0,5.7,0,8.5.1,10.5.2,10.5.3,10.5,10.7,0,28.6-27.1,46.7-51.6,34.3-15.7-7.9-16.9-26.8-2.3-36.8,8-5.5,17.2-7.1,26.5-8,2.8-.3,5.6-.4,8.4-.4h0Z"/>
    <path id="path12" class="st1" d="M1438.2,880.9c-13.7.3-27.1,4-40,11-1.8,1-3.5,1.9-3.5,4.3.1,6.3-.3,12.6,1.8,19.3,8.9-6.9,18.6-11.1,29.1-12.5,26.1-3.4,40.6,3,43.9,25.5,1.3,9.1,1.4,9.2-7.6,9.1-19.7-.3-39.3-.9-57.9,7.7-17.6,8.2-26.6,22.9-25.4,42.5,1.1,18.1,11.7,31,30.7,35.8,23.8,6.1,45.4,2.6,63-17.8,1.6,6.4-1.7,13,1.8,16.1,3.8,3.3,10.4.6,15.7,1.2,5.4.6,7.4-.8,6.7-6.8-.9-7.8-.9-15.7-.9-23.6-.1-20,.1-39.9-.1-59.9-.3-26.2-11-42.8-32.4-48.8-8.4-2.3-16.8-3.4-25-3.2h0ZM1451.3,956.4c5.2,0,10.5.3,15.7.7,6.5.5,1.3,6.9,3.2,9.6.1,23.1-12.9,37.1-35.2,38.5-14.5.9-26.2-6.8-28.6-18.9-2.1-10.9,5.3-21.4,19-26,8.5-2.8,17.2-3.8,25.9-3.8Z"/>
    <path id="path14" class="st1" d="M1869.2,881c-2.7,0-5.5.1-8.4.4-39.5,3.5-65.6,37-62.1,79.5,3.3,39.6,37,68.5,75.7,65.2,42.1-3.5,66.7-38,65.1-76-1.3-40.6-29.3-69.1-70.3-69.1h0ZM1869.4,901.7c15.6.2,30.8,10.2,37.9,27.4,7.7,18.7,6.9,37.6-3,55.5-7.5,13.6-19.4,20.6-34.9,20.7-15.9,0-27.7-7.1-35.6-20.8-5.5-9.4-7.4-19.6-7.8-31.3.7-17.8,6-34.5,22.6-45.3,6.5-4.3,13.7-6.2,20.8-6.1Z"/>
    <path id="path16" class="st1" d="M969,881.2c-42.2,0-70.7,29.6-70.5,73.1.2,41,30.7,72,71,72,39.6,0,70.1-31.6,70.1-72.9,0-42.6-28.9-72.2-70.7-72.1ZM969.9,901.9c11.9.2,23.5,5.9,31.1,16.7,13.6,19.4,14.8,40.2,5.4,61.5-7.9,17.8-22.2,26.3-40.2,25-17.7-1.3-31.6-13-37.1-31-2-6.6-3.4-13.4-3.1-20.4.3-16.3,4.7-31,17.4-42.2,7.7-6.7,17.1-9.9,26.4-9.8Z"/>
    <path id="path18" class="st0" d="M259.1,1000.5c2.8,2.2,5.4,1.4,7.7,1.4,22.4,0,44.8,0,67.2-.1,4.4,0,6,1.1,6.1,5.7.4,15.6.6,15.6-14.7,15.6-30,0-60.1-.3-90.1.2-6.9,0-7.7-2.4-8-8.4-.6-10.3,2.5-18,9.4-25.8,22.1-25.3,43.3-51.4,64.9-77.3,1.4-1.6,3.3-3,3.4-6.5h-17.3c-16.7,0-33.5-.2-50.2.1-4.9,0-6.2-1.4-6.1-6.2,0-14.9-.2-14.9,14.3-14.9,28.3,0,56.6,0,85-.1,4.6,0,6.1,1.1,6.4,6,.7,11.1-1.9,19.8-9.7,28.6-22.5,25.6-43.9,52.3-65.7,78.5-.8.9-1.5,1.9-2.5,3.3h0Z"/>
    <path id="path20" class="st0" d="M1296.7,905.1c-23.6,0-45.7-.2-67.8.1-5.9,0-7.4-1.6-7.2-7.4.4-13.7.1-13.7,13.9-13.7,28.3,0,56.6.1,85-.1,4.9,0,6.4,1,6.9,6.3,1.1,11.6-2.6,20.3-10.3,29.1-22,25.1-43.1,51.1-64.4,76.8-1.2,1.4-3,2.6-2.9,5.6,10.1,0,20.1,0,30.1,0,14.8,0,29.6.2,44.3-.1,4.4,0,6,.8,6,5.6.2,15.7.4,15.7-15.1,15.7-29.6,0-59.1-.1-88.7.1-6.4,0-8.8-1.1-8.9-8.4-.2-10.2,2.7-18,9.5-25.8,22.2-25.6,43.6-51.9,65.3-77.9,1.2-1.5,2.3-3.1,4.3-6h0Z"/>
    <path id="path22" class="st0" d="M1109.5,950.6c0-13.3-.1-26.6,0-39.9,0-4.1-1.2-5.8-5.4-5.6-6.9.3-13.8,0-20.7.1-3.9.1-5-1.4-5.1-5.1-.7-15.9-.8-15.9,15-15.9q16.2,0,16.2-16.3t15.2-20.5q10.5-3.1,10.5,8.1c0,7.1.4,14.3-.1,21.4-.5,6.3,2.2,7.6,7.7,7.3,7.9-.3,15.8,0,23.6-.2,3.9-.1,5.6.7,5.7,5.2.3,15.8.5,15.8-15.6,15.8-5.4,0-10.8.2-16.3,0-3.9-.2-5.1,1.4-5.1,5.2.1,23.6-.3,47.3.2,70.9.5,19.9,14.9,28.9,33.5,21.4,4.7-1.9,5.3-.7,5.3,3.6.2,16.9.4,17.5-16.1,19.3-28.2,3.2-49.5-9.5-48.6-41,.3-11.3,0-22.7,0-34h0Z"/>
    <path id="path24" class="st0" d="M487.1,998.7c.4,4.3.4,8.8,1.3,13.1,1.5,6.8-.6,10.3-7.7,11.7-28.4,5.8-54.5,2.8-75.5-19.4-31.6-33.4-24.9-102.1,26.7-119.3,17.1-5.7,34.4-4.8,51.6,0,3.1.9,4.7,2.1,4.1,5.6-.8,5.1.4,11.6-2.4,15-3.3,4-8.8-1.1-13.3-2.1-43.7-9.6-61.7,28.6-57.9,58.2,3.3,25.5,18,41,41.5,43.4,9,.9,17.6-1.1,25.8-4.7,1.8-.8,3.4-2.2,5.7-1.6h0Z"/>
    <path id="path26" class="st0" d="M1651.7,956.7c-.8-50.6,37.8-83.2,84.4-74.5.5,0,1,.2,1.4.3,18.5,3.8,16.2.7,14.2,19.9-.5,5.1-2.6,5-6.1,3.7-5.5-2.1-11.2-3.5-17.2-3.8-22.3-1.3-38.2,9.5-45.7,30.6-4.4,12.5-5,25.1-1.4,37.7,8.6,30.2,35.8,42.8,64.9,29.9,5.7-2.5,7.4-1.9,6.9,4.2-.1,1.9.4,3.9.6,5.9,1.1,10.6,1.2,11.2-9.1,13.3-27.5,5.6-53,2.2-73.5-19.3-13.5-14.2-19.4-31.6-19.4-47.9h0Z"/>
    <path id="path28" class="st0" d="M1592,921.4c0,31.5,0,63,.1,94.6,0,5.3-1.1,7.3-6.9,7.2-18.9-.2-18.9,0-18.9-18.7,0-59.3,0-118.7-.1-178,0-5.6,1.1-7.6,7.2-7.5,18.6.3,18.6,0,18.6,18.3,0,28.1,0,56.1,0,84.2Z"/>
    <path class="st2" d="M1806.3,674.9c-55.3-122.9-110.7-245.9-166.1-368.8-44.5-98.8-89-197.5-133.3-296.4-2.3-5.2-5.6-6.4-10.9-6.4-75.1.1-150.3.1-225.4,0-5.7,0-8.9,1.8-11.3,7.1-10.4,22.8-21.2,45.4-32.2,68.9-1.2-2.1-1.8-3.1-2.4-4.2C1196.3,26,1153.8.5,1097.1.3h0c-92.1-.3-184.3-.5-276.4,0-53,.4-92.6,25.6-121,69.5-1.7,2.7-3.1,5.6-5.2,9.3-11.2-24-22.1-46.8-32.6-69.8-2-4.4-4.6-6.2-9.5-6.2-75.9.1-151.7.1-227.6,0-4.9,0-7.6,1.8-9.6,6.2-36,80.2-72.1,160.4-108.1,240.6-40.2,89.4-80.4,178.8-120.5,268.2-23.8,52.9-47.5,105.8-71.3,158.6-2,4.4-4.2,8.5,3.8,8.5,76.6,0,153.2,0,229.8,0,4.5,0,7.3-1.5,8.9-5.8,2.6-6.6,5.7-13.1,8.6-19.5,53.2-118.2,106.4-236.5,159.6-354.7,4.5-10.1,9.1-20.1,14.3-31.5,11,23.8,21.2,46.1,31.6,68.3,1.1,2.4.3,4.2-.6,6.2-12.7,28.5-25.3,57-37.9,85.6-35.6,80.4-71.2,160.8-106.8,241.3-4.1,9.2-3.4,10.2,6.4,10.2,72.9,0,145.8,0,218.8.1,5.5,0,8.4-1.8,10.6-6.9,7.2-16.9,14.9-33.6,22.5-50.4,3-6.7,6.3-13.4,9.8-21,15.7,29.9,36.9,52.4,66.2,66.8,21.6,10.6,44.7,14.8,68.6,14.8,89.2.1,178.4.2,267.5,0,40.9-.1,75.4-15.7,104-44.9,10.5-10.7,18.6-23.2,26.4-36.9,11.1,24.4,21.9,47.9,32.2,71.5,2.2,5,4.9,7,10.4,6.9,33-.2,66,0,99,0,41.4,0,82.8,0,124.2,0,8,0,9.1-1.4,6.2-7.7-24.1-53.5-48.2-107.1-72.3-160.6-25.3-56.2-50.6-112.4-75.9-168.6-.9-2.1-2.6-4.1-1.3-6.9,10.4-22.1,20.6-44.3,30.9-66.5,2,.5,2.1,1.9,2.6,3,8,17.7,16,35.3,24,53,52,115.6,104,231.2,155.8,346.9,2.5,5.5,5.4,7.6,11.5,7.6,74.9-.2,149.8,0,224.7,0,11.1,0,11.3-.4,6.8-10.5ZM817.9,333.5c28-61.4,55.8-123,83.8-184.5,11.1-24.4,32.1-37.7,65.1-37.8,21,.9,41.2,13.4,52.9,39.1,25.4,55.6,50.6,111.4,76.9,166.5,7,14.6,8.1,26.2.3,41.4-27.1,53.1-52.4,107.2-76.2,162-10.9,25.1-30.3,39.1-57.7,40.2-29.2,1.1-49.6-13.2-61.9-39.3-27.8-59.1-55.4-118.4-83.2-177.5-1.7-3.7-1.8-6.4-.1-10.2ZM1203.2,564.2c-7.8,16.1-13.7,33.2-26.2,46.7-23.3,25.3-51.9,37.5-86.4,38-63.3.9-126.6,1.9-189.9,1.2-27.1-.3-54.2.3-81.2-2.2-42-4-72.9-25-91-63.3-27.2-57.5-54.1-115.2-81-172.8-47.6-101.7-95.1-203.4-142.7-305.1-9.6-20.5-19.2-40.9-28.8-61.4-.8-1.7-1.5-3.5-2.2-5.2,1.6-1.9,3.4-1.1,5-1.1,50.7,0,101.5,0,152.2-.2,5,0,7.2,1.7,9.1,6.1,48.9,107.5,98,215,147,322.5,26.8,58.8,53.1,117.8,80.4,176.3,13.6,29.2,38.3,45.9,69.3,52.1,36.3,7.3,69.4-.3,97.3-25.8,8.6-7.9,15-17.4,19.9-28.1,22.9-49.8,45.9-99.4,68.9-149.2,1-2.2,2.2-4.4,3.9-7.8,0,0,0,0,0,0h0c9.5,21,18.4,40.7,27.3,60.4,16.3,36.1,32.5,72.1,48.9,108.1,1.8,4,2,7,0,11ZM1327.8,297.7s0,0,0,0h0s0,0,0,0c-14.8-32.2-28.7-62.8-42.8-93.4-11.9-25.9-23.8-51.8-35.8-77.6-1.7-3.6-2-6.5-.2-10.3,11.4-24.2,22.6-48.6,33.8-72.9,1.1-2.3,1.5-4.7,5.4-4.7,53.2.2,106.4.1,161,.1-40.5,86.3-80.6,171.8-121.3,258.6Z"/>
  </g>
</svg>